<?xml version="1.0" encoding="utf-8"?>
<!-- Generator: Adobe Illustrator 25.4.1, SVG Export Plug-In . SVG Version: 6.00 Build 0)  -->
<svg version="1.1" id="SurrealDB" xmlns="http://www.w3.org/2000/svg" xmlns:xlink="http://www.w3.org/1999/xlink" x="0px" y="0px"
	 viewBox="0 0 4556.4 979.9" style="enable-background:#000000;" xml:space="preserve">
<style type="text/css">
	.st0{fill:url(#DB_00000131325159217074528980000011498496901922200726_);}
	.st1{fill:#FFFFFF;}
	.st2{fill:url(#Icon_00000042733166574990169790000002818910808938050475_);}
</style>

<path id="DB" style="fill:url(#DB_00000034071243122191611140000007718400840105821099_);" d="M4485.5,470.9
	c84.5-64.2,39.3-205.8-52.4-238c-20.2-8.3-41.6-11.9-64.2-11.9h-221.3v536.6c13.1,0,251,0,251,0c42.8,0,83.3-15.5,113-44
	C4578.4,649.4,4571.2,518.5,4485.5,470.9z M4254.7,329.3h110.6c28.6,0,52.3,20.2,51.2,50c1.2,28.6-22.6,52.4-51.2,51.2h-110.6V329.3
	z M4392.7,650.6h-138V534h138c28.6-1.2,52.4,30.9,51.2,59.5C4445.1,620.8,4421.3,651.8,4392.7,650.6z M3937.8,241.3
	c-33.3-13.1-70.2-20.2-110.6-20.2h-199.9v536.6h199.9c42.8,0,80.9-7.1,114.2-20.2c102.3-39.3,159.4-140.4,158.2-248.7
	C4100.8,380.5,4040.1,280.5,3937.8,241.3z M3985.4,489.9c1.1,84.5-69.1,161.9-154.7,160.7h-97.6V329.3h97.6
	C3916.4,328.1,3986.6,406.6,3985.4,489.9z"/>

<linearGradient id="Icon_00000033344411714133337050000008493637033666045877_" gradientUnits="userSpaceOnUse" x1="203.3477" y1="-1815.3029" x2="636.6956" y2="-1064.7222" gradientTransform="matrix(1 0 0 1 0 1930)">
	<stop  offset="0" style="stop-color:#00000"/>
	<stop  offset="1" style="stop-color:#03e9f4"/>
</linearGradient>
<path id="Icon" style="fill:url(#Icon_00000033344411714133337050000008493637033666045877_);" d="M420,257.8L653.3,387v-51.8
	L420,206.3c-34.7,19.2-202.4,111.9-233.3,128.9c28.7,15.9,330.1,182.4,513.3,283.6v51.6c-24.9,13.8-280,154.7-280,154.7
	C350.2,786.6,209.7,709,140,670.4V515.7l280,154.7l46.7-25.8L93.3,438.4v257.9L420,876.7c32.2-17.8,302.8-167.3,326.6-180.5V593.1
	L280,335.2L420,257.8z M93.3,283.6v103.2l466.6,257.9l-140,77.4L186.6,592.9v51.8l233.3,128.9c34.7-19.2,202.4-111.9,233.3-128.9
	C624.5,628.8,323.2,462.3,140,361v-51.6c24.9-13.8,280-154.7,280-154.7c69.7,38.6,210.2,116.2,280,154.7v154.7L420,309.4l-46.7,25.8
	l373.3,206.3V283.6L420,103.1C387.7,121,117.2,270.5,93.3,283.6z M420,0L0,232.1v515.7l420,232.1l420-232V232.1L420,0z M793.2,722
	L420,928.3L46.7,722V257.9L420,51.6l373.3,206.3L793.2,722z"/>
</svg>
